<mxfile host="app.diagrams.net" modified="2023-12-06T23:06:55.452Z" agent="Mozilla/5.0 (Windows NT 10.0; Win64; x64; rv:120.0) Gecko/20100101 Firefox/120.0" etag="QJsl3ACx0_cBcfuTacid" version="22.1.7" type="google">
  <diagram id="R2lEEEUBdFMjLlhIrx00" name="Page-1">
    <mxGraphModel grid="1" page="1" gridSize="10" guides="1" tooltips="1" connect="1" arrows="1" fold="1" pageScale="1" pageWidth="850" pageHeight="1100" math="0" shadow="0" extFonts="Permanent Marker^https://fonts.googleapis.com/css?family=Permanent+Marker">
      <root>
        <mxCell id="0" />
        <mxCell id="1" parent="0" />
        <mxCell id="7RfgGKTDD1CG8Sb9NsJ1-7" value="SITE_WORKER" style="whiteSpace=wrap;html=1;align=center;shape=ext;margin=3;double=1;" vertex="1" parent="1">
          <mxGeometry x="280" y="280" width="100" height="40" as="geometry" />
        </mxCell>
        <mxCell id="7RfgGKTDD1CG8Sb9NsJ1-42" style="rounded=0;orthogonalLoop=1;jettySize=auto;html=1;exitX=0;exitY=0.5;exitDx=0;exitDy=0;entryX=1;entryY=0.5;entryDx=0;entryDy=0;endArrow=none;endFill=0;startArrow=none;startFill=0;" edge="1" parent="1" source="7RfgGKTDD1CG8Sb9NsJ1-19" target="7RfgGKTDD1CG8Sb9NsJ1-41">
          <mxGeometry relative="1" as="geometry" />
        </mxCell>
        <mxCell id="3PZDKVuCGE1QRWVwqExa-4" value="" style="edgeStyle=orthogonalEdgeStyle;rounded=0;orthogonalLoop=1;jettySize=auto;html=1;endArrow=none;endFill=0;" edge="1" parent="1" source="7RfgGKTDD1CG8Sb9NsJ1-19" target="nxDgHLYhoW1FaPYyogTJ-9">
          <mxGeometry relative="1" as="geometry" />
        </mxCell>
        <mxCell id="3PZDKVuCGE1QRWVwqExa-5" style="edgeStyle=orthogonalEdgeStyle;rounded=0;orthogonalLoop=1;jettySize=auto;html=1;exitX=0.5;exitY=1;exitDx=0;exitDy=0;entryX=0;entryY=0.5;entryDx=0;entryDy=0;endArrow=none;endFill=0;" edge="1" parent="1" source="7RfgGKTDD1CG8Sb9NsJ1-19" target="nxDgHLYhoW1FaPYyogTJ-29">
          <mxGeometry relative="1" as="geometry" />
        </mxCell>
        <mxCell id="7RfgGKTDD1CG8Sb9NsJ1-19" value="SITE" style="whiteSpace=wrap;html=1;align=center;" vertex="1" parent="1">
          <mxGeometry x="470" y="420" width="100" height="40" as="geometry" />
        </mxCell>
        <mxCell id="7RfgGKTDD1CG8Sb9NsJ1-43" value="" style="edgeStyle=orthogonalEdgeStyle;rounded=0;orthogonalLoop=1;jettySize=auto;html=1;endArrow=none;endFill=0;startArrow=none;startFill=0;shape=link;" edge="1" parent="1" source="7RfgGKTDD1CG8Sb9NsJ1-41" target="7RfgGKTDD1CG8Sb9NsJ1-7">
          <mxGeometry relative="1" as="geometry" />
        </mxCell>
        <mxCell id="7RfgGKTDD1CG8Sb9NsJ1-41" value="WORKS_AT_SITE" style="shape=rhombus;perimeter=rhombusPerimeter;whiteSpace=wrap;html=1;align=center;double=1;" vertex="1" parent="1">
          <mxGeometry x="270" y="410" width="120" height="60" as="geometry" />
        </mxCell>
        <mxCell id="6tuepDzeuS6SfQgKNAhq-52" value="SALES_DEPT" style="whiteSpace=wrap;html=1;align=center;" vertex="1" parent="1">
          <mxGeometry x="-70" y="1370" width="100" height="40" as="geometry" />
        </mxCell>
        <mxCell id="nxDgHLYhoW1FaPYyogTJ-6" style="edgeStyle=orthogonalEdgeStyle;rounded=0;orthogonalLoop=1;jettySize=auto;html=1;exitX=1;exitY=0.5;exitDx=0;exitDy=0;entryX=0;entryY=0.5;entryDx=0;entryDy=0;endArrow=none;endFill=0;" edge="1" parent="1" source="6tuepDzeuS6SfQgKNAhq-58" target="6tuepDzeuS6SfQgKNAhq-69">
          <mxGeometry relative="1" as="geometry" />
        </mxCell>
        <mxCell id="nxDgHLYhoW1FaPYyogTJ-7" style="edgeStyle=orthogonalEdgeStyle;rounded=0;orthogonalLoop=1;jettySize=auto;html=1;exitX=0.5;exitY=1;exitDx=0;exitDy=0;entryX=0.5;entryY=0;entryDx=0;entryDy=0;shape=link;" edge="1" parent="1" source="6tuepDzeuS6SfQgKNAhq-58" target="6tuepDzeuS6SfQgKNAhq-78">
          <mxGeometry relative="1" as="geometry">
            <mxPoint x="825" y="1620" as="targetPoint" />
          </mxGeometry>
        </mxCell>
        <mxCell id="6tuepDzeuS6SfQgKNAhq-58" value="MADE_SALE" style="shape=rhombus;perimeter=rhombusPerimeter;whiteSpace=wrap;html=1;align=center;double=1;" vertex="1" parent="1">
          <mxGeometry x="600" y="1360" width="120" height="60" as="geometry" />
        </mxCell>
        <mxCell id="nxDgHLYhoW1FaPYyogTJ-5" style="rounded=0;orthogonalLoop=1;jettySize=auto;html=1;exitX=1;exitY=0.5;exitDx=0;exitDy=0;entryX=0;entryY=0.5;entryDx=0;entryDy=0;endArrow=none;endFill=0;" edge="1" parent="1" source="6tuepDzeuS6SfQgKNAhq-63" target="6tuepDzeuS6SfQgKNAhq-58">
          <mxGeometry relative="1" as="geometry" />
        </mxCell>
        <mxCell id="6tuepDzeuS6SfQgKNAhq-63" value="SALES_ASSOCIATE" style="whiteSpace=wrap;html=1;align=center;shape=ext;margin=3;double=1;" vertex="1" parent="1">
          <mxGeometry x="370" y="1370" width="100" height="40" as="geometry" />
        </mxCell>
        <mxCell id="6tuepDzeuS6SfQgKNAhq-69" value="CLIENT" style="whiteSpace=wrap;html=1;align=center;" vertex="1" parent="1">
          <mxGeometry x="850" y="1370" width="100" height="40" as="geometry" />
        </mxCell>
        <mxCell id="6tuepDzeuS6SfQgKNAhq-78" value="SALE" style="shape=ext;margin=3;double=1;whiteSpace=wrap;html=1;align=center;" vertex="1" parent="1">
          <mxGeometry x="610" y="1620" width="100" height="40" as="geometry" />
        </mxCell>
        <mxCell id="3PZDKVuCGE1QRWVwqExa-1" style="edgeStyle=orthogonalEdgeStyle;rounded=0;orthogonalLoop=1;jettySize=auto;html=1;exitX=0;exitY=0.5;exitDx=0;exitDy=0;entryX=1;entryY=0.5;entryDx=0;entryDy=0;endArrow=none;endFill=0;shape=link;" edge="1" parent="1" source="6tuepDzeuS6SfQgKNAhq-83" target="6tuepDzeuS6SfQgKNAhq-85">
          <mxGeometry relative="1" as="geometry" />
        </mxCell>
        <mxCell id="6tuepDzeuS6SfQgKNAhq-83" value="SW_HAS_TEMP_CONTRACT" style="shape=rhombus;perimeter=rhombusPerimeter;whiteSpace=wrap;html=1;align=center;double=1;" vertex="1" parent="1">
          <mxGeometry x="100" y="220" width="120" height="60" as="geometry" />
        </mxCell>
        <mxCell id="6tuepDzeuS6SfQgKNAhq-84" value="SW_HAS_PERM_CONTRACT" style="shape=rhombus;perimeter=rhombusPerimeter;whiteSpace=wrap;html=1;align=center;double=1;" vertex="1" parent="1">
          <mxGeometry x="100" y="320" width="120" height="60" as="geometry" />
        </mxCell>
        <mxCell id="6tuepDzeuS6SfQgKNAhq-85" value="SW_TEMPORARY_CONTRACT" style="whiteSpace=wrap;html=1;align=center;shape=ext;margin=3;double=1;" vertex="1" parent="1">
          <mxGeometry x="-85" y="230" width="100" height="40" as="geometry" />
        </mxCell>
        <mxCell id="6tuepDzeuS6SfQgKNAhq-86" value="SW_PERMANENT_CONTRACT" style="whiteSpace=wrap;html=1;align=center;shape=ext;margin=3;double=1;" vertex="1" parent="1">
          <mxGeometry x="-85" y="330" width="100" height="40" as="geometry" />
        </mxCell>
        <mxCell id="6tuepDzeuS6SfQgKNAhq-89" value="" style="endArrow=none;html=1;rounded=0;exitX=1;exitY=0.5;exitDx=0;exitDy=0;entryX=0;entryY=0.5;entryDx=0;entryDy=0;shape=link;" edge="1" parent="1" source="6tuepDzeuS6SfQgKNAhq-86" target="6tuepDzeuS6SfQgKNAhq-84">
          <mxGeometry width="50" height="50" relative="1" as="geometry">
            <mxPoint x="480" y="490" as="sourcePoint" />
            <mxPoint x="530" y="440" as="targetPoint" />
          </mxGeometry>
        </mxCell>
        <mxCell id="6tuepDzeuS6SfQgKNAhq-90" value="" style="endArrow=none;html=1;rounded=0;exitX=0;exitY=0.5;exitDx=0;exitDy=0;entryX=1;entryY=0.5;entryDx=0;entryDy=0;" edge="1" parent="1" source="7RfgGKTDD1CG8Sb9NsJ1-7" target="6tuepDzeuS6SfQgKNAhq-84">
          <mxGeometry width="50" height="50" relative="1" as="geometry">
            <mxPoint x="-240" y="180" as="sourcePoint" />
            <mxPoint x="-240" y="250" as="targetPoint" />
          </mxGeometry>
        </mxCell>
        <mxCell id="6tuepDzeuS6SfQgKNAhq-91" value="" style="endArrow=none;html=1;rounded=0;exitX=0;exitY=0.5;exitDx=0;exitDy=0;entryX=1;entryY=0.5;entryDx=0;entryDy=0;" edge="1" parent="1" source="7RfgGKTDD1CG8Sb9NsJ1-7" target="6tuepDzeuS6SfQgKNAhq-83">
          <mxGeometry width="50" height="50" relative="1" as="geometry">
            <mxPoint x="-160" y="420" as="sourcePoint" />
            <mxPoint x="-240" y="310" as="targetPoint" />
          </mxGeometry>
        </mxCell>
        <mxCell id="6tuepDzeuS6SfQgKNAhq-97" value="MANAGES" style="shape=rhombus;perimeter=rhombusPerimeter;whiteSpace=wrap;html=1;align=center;double=1;" vertex="1" parent="1">
          <mxGeometry x="-80" y="1470" width="120" height="60" as="geometry" />
        </mxCell>
        <mxCell id="6tuepDzeuS6SfQgKNAhq-98" value="SALES_MANAGER" style="whiteSpace=wrap;html=1;align=center;shape=ext;margin=3;double=1;" vertex="1" parent="1">
          <mxGeometry x="-70" y="1600" width="100" height="40" as="geometry" />
        </mxCell>
        <mxCell id="6tuepDzeuS6SfQgKNAhq-100" value="" style="endArrow=none;html=1;rounded=0;exitX=0.5;exitY=1;exitDx=0;exitDy=0;entryX=0.5;entryY=0;entryDx=0;entryDy=0;" edge="1" parent="1" source="6tuepDzeuS6SfQgKNAhq-52" target="6tuepDzeuS6SfQgKNAhq-97">
          <mxGeometry width="50" height="50" relative="1" as="geometry">
            <mxPoint x="340" y="1670" as="sourcePoint" />
            <mxPoint x="390" y="1620" as="targetPoint" />
          </mxGeometry>
        </mxCell>
        <mxCell id="6tuepDzeuS6SfQgKNAhq-101" value="" style="endArrow=none;html=1;rounded=0;exitX=0.5;exitY=1;exitDx=0;exitDy=0;entryX=0.5;entryY=0;entryDx=0;entryDy=0;shape=link;" edge="1" parent="1" source="6tuepDzeuS6SfQgKNAhq-97" target="6tuepDzeuS6SfQgKNAhq-98">
          <mxGeometry width="50" height="50" relative="1" as="geometry">
            <mxPoint x="340" y="1670" as="sourcePoint" />
            <mxPoint x="390" y="1620" as="targetPoint" />
          </mxGeometry>
        </mxCell>
        <mxCell id="3PZDKVuCGE1QRWVwqExa-3" value="" style="edgeStyle=orthogonalEdgeStyle;rounded=0;orthogonalLoop=1;jettySize=auto;html=1;endArrow=none;endFill=0;strokeColor=default;shape=link;" edge="1" parent="1" source="6tuepDzeuS6SfQgKNAhq-111" target="nxDgHLYhoW1FaPYyogTJ-9">
          <mxGeometry relative="1" as="geometry" />
        </mxCell>
        <mxCell id="6tuepDzeuS6SfQgKNAhq-111" value="SITE_MANAGER" style="whiteSpace=wrap;html=1;align=center;shape=ext;margin=3;double=1;" vertex="1" parent="1">
          <mxGeometry x="470" y="160" width="100" height="40" as="geometry" />
        </mxCell>
        <mxCell id="nxDgHLYhoW1FaPYyogTJ-2" style="rounded=0;orthogonalLoop=1;jettySize=auto;html=1;exitX=1;exitY=0.5;exitDx=0;exitDy=0;entryX=0;entryY=0.5;entryDx=0;entryDy=0;endArrow=none;endFill=0;shape=link;" edge="1" parent="1" source="nxDgHLYhoW1FaPYyogTJ-1" target="6tuepDzeuS6SfQgKNAhq-63">
          <mxGeometry relative="1" as="geometry" />
        </mxCell>
        <mxCell id="nxDgHLYhoW1FaPYyogTJ-3" style="rounded=0;orthogonalLoop=1;jettySize=auto;html=1;exitX=0;exitY=0.5;exitDx=0;exitDy=0;entryX=1;entryY=0.5;entryDx=0;entryDy=0;endArrow=none;endFill=0;" edge="1" parent="1" source="nxDgHLYhoW1FaPYyogTJ-1" target="6tuepDzeuS6SfQgKNAhq-52">
          <mxGeometry relative="1" as="geometry" />
        </mxCell>
        <mxCell id="nxDgHLYhoW1FaPYyogTJ-1" value="PART_OF_SALES_DEPT" style="shape=rhombus;perimeter=rhombusPerimeter;whiteSpace=wrap;html=1;align=center;double=1;" vertex="1" parent="1">
          <mxGeometry x="135" y="1360" width="120" height="60" as="geometry" />
        </mxCell>
        <mxCell id="nxDgHLYhoW1FaPYyogTJ-9" value="MANAGES_SITE" style="shape=rhombus;perimeter=rhombusPerimeter;whiteSpace=wrap;html=1;align=center;double=1;" vertex="1" parent="1">
          <mxGeometry x="460" y="270" width="120" height="60" as="geometry" />
        </mxCell>
        <mxCell id="3PZDKVuCGE1QRWVwqExa-2" value="" style="edgeStyle=orthogonalEdgeStyle;rounded=0;orthogonalLoop=1;jettySize=auto;html=1;endArrow=none;endFill=0;" edge="1" parent="1" source="nxDgHLYhoW1FaPYyogTJ-12" target="7RfgGKTDD1CG8Sb9NsJ1-7">
          <mxGeometry relative="1" as="geometry" />
        </mxCell>
        <mxCell id="3PZDKVuCGE1QRWVwqExa-16" style="edgeStyle=orthogonalEdgeStyle;rounded=0;orthogonalLoop=1;jettySize=auto;html=1;exitX=1;exitY=0.5;exitDx=0;exitDy=0;entryX=0;entryY=0.5;entryDx=0;entryDy=0;endArrow=none;endFill=0;shape=link;" edge="1" parent="1" source="nxDgHLYhoW1FaPYyogTJ-12" target="6tuepDzeuS6SfQgKNAhq-111">
          <mxGeometry relative="1" as="geometry" />
        </mxCell>
        <mxCell id="nxDgHLYhoW1FaPYyogTJ-12" value="SM_IS_AN_EMPLOYEE" style="shape=rhombus;perimeter=rhombusPerimeter;whiteSpace=wrap;html=1;align=center;double=1;" vertex="1" parent="1">
          <mxGeometry x="270" y="150" width="120" height="60" as="geometry" />
        </mxCell>
        <mxCell id="nxDgHLYhoW1FaPYyogTJ-17" value="IPC" style="shape=ext;margin=3;double=1;whiteSpace=wrap;html=1;align=center;" vertex="1" parent="1">
          <mxGeometry x="1120" y="970" width="100" height="40" as="geometry" />
        </mxCell>
        <mxCell id="nxDgHLYhoW1FaPYyogTJ-46" style="rounded=0;orthogonalLoop=1;jettySize=auto;html=1;entryX=0.5;entryY=0;entryDx=0;entryDy=0;exitX=0.5;exitY=1;exitDx=0;exitDy=0;endArrow=none;endFill=0;" edge="1" parent="1" source="nxDgHLYhoW1FaPYyogTJ-54" target="6tuepDzeuS6SfQgKNAhq-58">
          <mxGeometry relative="1" as="geometry">
            <mxPoint x="670" y="1330" as="sourcePoint" />
          </mxGeometry>
        </mxCell>
        <mxCell id="3PZDKVuCGE1QRWVwqExa-7" style="edgeStyle=orthogonalEdgeStyle;rounded=0;orthogonalLoop=1;jettySize=auto;html=1;exitX=0.5;exitY=1;exitDx=0;exitDy=0;entryX=0.5;entryY=0;entryDx=0;entryDy=0;endArrow=none;endFill=0;shape=link;" edge="1" parent="1" source="nxDgHLYhoW1FaPYyogTJ-29" target="nxDgHLYhoW1FaPYyogTJ-48">
          <mxGeometry relative="1" as="geometry" />
        </mxCell>
        <mxCell id="nxDgHLYhoW1FaPYyogTJ-29" value="SUPPLIES" style="shape=rhombus;perimeter=rhombusPerimeter;whiteSpace=wrap;html=1;align=center;double=1;" vertex="1" parent="1">
          <mxGeometry x="600" y="530" width="120" height="60" as="geometry" />
        </mxCell>
        <mxCell id="3PZDKVuCGE1QRWVwqExa-13" style="edgeStyle=orthogonalEdgeStyle;rounded=0;orthogonalLoop=1;jettySize=auto;html=1;exitX=1;exitY=0.5;exitDx=0;exitDy=0;entryX=0;entryY=0.5;entryDx=0;entryDy=0;endArrow=none;endFill=0;shape=link;" edge="1" parent="1" source="nxDgHLYhoW1FaPYyogTJ-31" target="nxDgHLYhoW1FaPYyogTJ-17">
          <mxGeometry relative="1" as="geometry" />
        </mxCell>
        <mxCell id="nxDgHLYhoW1FaPYyogTJ-31" value="IPC_CONTROLS" style="shape=rhombus;double=1;perimeter=rhombusPerimeter;whiteSpace=wrap;html=1;align=center;" vertex="1" parent="1">
          <mxGeometry x="860" y="960" width="120" height="60" as="geometry" />
        </mxCell>
        <mxCell id="3PZDKVuCGE1QRWVwqExa-6" style="edgeStyle=orthogonalEdgeStyle;rounded=0;orthogonalLoop=1;jettySize=auto;html=1;exitX=0.5;exitY=1;exitDx=0;exitDy=0;entryX=1;entryY=0.5;entryDx=0;entryDy=0;endArrow=none;endFill=0;" edge="1" parent="1" source="KUu47qJ8_lN8iZBXWBEV-4" target="nxDgHLYhoW1FaPYyogTJ-29">
          <mxGeometry relative="1" as="geometry">
            <mxPoint x="760" y="460" as="sourcePoint" />
          </mxGeometry>
        </mxCell>
        <mxCell id="3PZDKVuCGE1QRWVwqExa-8" style="edgeStyle=orthogonalEdgeStyle;rounded=0;orthogonalLoop=1;jettySize=auto;html=1;exitX=0.5;exitY=1;exitDx=0;exitDy=0;entryX=0.5;entryY=0;entryDx=0;entryDy=0;endArrow=none;endFill=0;" edge="1" parent="1" source="nxDgHLYhoW1FaPYyogTJ-48" target="nxDgHLYhoW1FaPYyogTJ-50">
          <mxGeometry relative="1" as="geometry" />
        </mxCell>
        <mxCell id="nxDgHLYhoW1FaPYyogTJ-48" value="INVENTORY" style="shape=ext;margin=3;double=1;whiteSpace=wrap;html=1;align=center;" vertex="1" parent="1">
          <mxGeometry x="610" y="700" width="100" height="40" as="geometry" />
        </mxCell>
        <mxCell id="3PZDKVuCGE1QRWVwqExa-9" style="edgeStyle=orthogonalEdgeStyle;rounded=0;orthogonalLoop=1;jettySize=auto;html=1;exitX=0.5;exitY=1;exitDx=0;exitDy=0;entryX=0.5;entryY=0;entryDx=0;entryDy=0;endArrow=none;endFill=0;shape=link;" edge="1" parent="1" source="nxDgHLYhoW1FaPYyogTJ-50" target="nxDgHLYhoW1FaPYyogTJ-51">
          <mxGeometry relative="1" as="geometry" />
        </mxCell>
        <mxCell id="nxDgHLYhoW1FaPYyogTJ-50" value="USED_IN_BATCH" style="shape=rhombus;double=1;perimeter=rhombusPerimeter;whiteSpace=wrap;html=1;align=center;" vertex="1" parent="1">
          <mxGeometry x="600" y="830" width="120" height="60" as="geometry" />
        </mxCell>
        <mxCell id="3PZDKVuCGE1QRWVwqExa-10" style="edgeStyle=orthogonalEdgeStyle;rounded=0;orthogonalLoop=1;jettySize=auto;html=1;exitX=1;exitY=0.5;exitDx=0;exitDy=0;entryX=0;entryY=0.5;entryDx=0;entryDy=0;endArrow=none;endFill=0;" edge="1" parent="1" source="nxDgHLYhoW1FaPYyogTJ-51" target="nxDgHLYhoW1FaPYyogTJ-31">
          <mxGeometry relative="1" as="geometry" />
        </mxCell>
        <mxCell id="3PZDKVuCGE1QRWVwqExa-11" style="edgeStyle=orthogonalEdgeStyle;rounded=0;orthogonalLoop=1;jettySize=auto;html=1;exitX=0.5;exitY=1;exitDx=0;exitDy=0;entryX=0.5;entryY=0;entryDx=0;entryDy=0;endArrow=none;endFill=0;" edge="1" parent="1" source="nxDgHLYhoW1FaPYyogTJ-51" target="nxDgHLYhoW1FaPYyogTJ-53">
          <mxGeometry relative="1" as="geometry" />
        </mxCell>
        <mxCell id="nxDgHLYhoW1FaPYyogTJ-51" value="BATCH" style="shape=ext;margin=3;double=1;whiteSpace=wrap;html=1;align=center;" vertex="1" parent="1">
          <mxGeometry x="610" y="970" width="100" height="40" as="geometry" />
        </mxCell>
        <mxCell id="3PZDKVuCGE1QRWVwqExa-12" style="edgeStyle=orthogonalEdgeStyle;rounded=0;orthogonalLoop=1;jettySize=auto;html=1;exitX=0.5;exitY=1;exitDx=0;exitDy=0;entryX=0.5;entryY=0;entryDx=0;entryDy=0;endArrow=none;endFill=0;shape=link;" edge="1" parent="1" source="nxDgHLYhoW1FaPYyogTJ-53" target="nxDgHLYhoW1FaPYyogTJ-54">
          <mxGeometry relative="1" as="geometry" />
        </mxCell>
        <mxCell id="nxDgHLYhoW1FaPYyogTJ-53" value="PRODUCES" style="shape=rhombus;double=1;perimeter=rhombusPerimeter;whiteSpace=wrap;html=1;align=center;" vertex="1" parent="1">
          <mxGeometry x="600" y="1090" width="120" height="60" as="geometry" />
        </mxCell>
        <mxCell id="nxDgHLYhoW1FaPYyogTJ-54" value="STOCK" style="shape=ext;margin=3;double=1;whiteSpace=wrap;html=1;align=center;" vertex="1" parent="1">
          <mxGeometry x="610" y="1230" width="100" height="40" as="geometry" />
        </mxCell>
        <mxCell id="uboCT4VGcEMhE3Ukk4wY-1" value="(1,1)" style="text;html=1;align=center;verticalAlign=middle;resizable=0;points=[];autosize=1;strokeColor=none;fillColor=none;" vertex="1" parent="1">
          <mxGeometry x="375" y="410" width="50" height="30" as="geometry" />
        </mxCell>
        <mxCell id="uboCT4VGcEMhE3Ukk4wY-2" value="(0,N)" style="text;html=1;align=center;verticalAlign=middle;resizable=0;points=[];autosize=1;strokeColor=none;fillColor=none;" vertex="1" parent="1">
          <mxGeometry x="325" y="380" width="50" height="30" as="geometry" />
        </mxCell>
        <mxCell id="uboCT4VGcEMhE3Ukk4wY-3" value="(1,1)" style="text;html=1;align=center;verticalAlign=middle;resizable=0;points=[];autosize=1;strokeColor=none;fillColor=none;" vertex="1" parent="1">
          <mxGeometry x="220" y="220" width="50" height="30" as="geometry" />
        </mxCell>
        <mxCell id="uboCT4VGcEMhE3Ukk4wY-4" value="(0,1)" style="text;html=1;align=center;verticalAlign=middle;resizable=0;points=[];autosize=1;strokeColor=none;fillColor=none;" vertex="1" parent="1">
          <mxGeometry x="60" y="220" width="50" height="30" as="geometry" />
        </mxCell>
        <mxCell id="uboCT4VGcEMhE3Ukk4wY-5" value="(1,1)" style="text;html=1;align=center;verticalAlign=middle;resizable=0;points=[];autosize=1;strokeColor=none;fillColor=none;" vertex="1" parent="1">
          <mxGeometry x="220" y="350" width="50" height="30" as="geometry" />
        </mxCell>
        <mxCell id="uboCT4VGcEMhE3Ukk4wY-6" value="(0,1)" style="text;html=1;align=center;verticalAlign=middle;resizable=0;points=[];autosize=1;strokeColor=none;fillColor=none;" vertex="1" parent="1">
          <mxGeometry x="60" y="350" width="50" height="30" as="geometry" />
        </mxCell>
        <mxCell id="uboCT4VGcEMhE3Ukk4wY-7" value="(1,1)" style="text;html=1;align=center;verticalAlign=middle;resizable=0;points=[];autosize=1;strokeColor=none;fillColor=none;" vertex="1" parent="1">
          <mxGeometry x="325" y="208" width="50" height="30" as="geometry" />
        </mxCell>
        <mxCell id="uboCT4VGcEMhE3Ukk4wY-8" value="(0,1)" style="text;html=1;align=center;verticalAlign=middle;resizable=0;points=[];autosize=1;strokeColor=none;fillColor=none;" vertex="1" parent="1">
          <mxGeometry x="365" y="138" width="50" height="30" as="geometry" />
        </mxCell>
        <mxCell id="uboCT4VGcEMhE3Ukk4wY-9" value="(0,1)" style="text;html=1;align=center;verticalAlign=middle;resizable=0;points=[];autosize=1;strokeColor=none;fillColor=none;" vertex="1" parent="1">
          <mxGeometry x="525" y="248" width="50" height="30" as="geometry" />
        </mxCell>
        <mxCell id="uboCT4VGcEMhE3Ukk4wY-10" value="(1,1)" style="text;html=1;align=center;verticalAlign=middle;resizable=0;points=[];autosize=1;strokeColor=none;fillColor=none;" vertex="1" parent="1">
          <mxGeometry x="515" y="328" width="50" height="30" as="geometry" />
        </mxCell>
        <mxCell id="uboCT4VGcEMhE3Ukk4wY-11" value="(1,1)" style="text;html=1;align=center;verticalAlign=middle;resizable=0;points=[];autosize=1;strokeColor=none;fillColor=none;" vertex="1" parent="1">
          <mxGeometry x="565" y="530" width="50" height="30" as="geometry" />
        </mxCell>
        <mxCell id="uboCT4VGcEMhE3Ukk4wY-12" value="(1,1)" style="text;html=1;align=center;verticalAlign=middle;resizable=0;points=[];autosize=1;strokeColor=none;fillColor=none;" vertex="1" parent="1">
          <mxGeometry x="705" y="528" width="50" height="30" as="geometry" />
        </mxCell>
        <mxCell id="uboCT4VGcEMhE3Ukk4wY-13" value="(0,N)" style="text;html=1;align=center;verticalAlign=middle;resizable=0;points=[];autosize=1;strokeColor=none;fillColor=none;" vertex="1" parent="1">
          <mxGeometry x="655" y="590" width="50" height="30" as="geometry" />
        </mxCell>
        <mxCell id="uboCT4VGcEMhE3Ukk4wY-14" value="(1,1)" style="text;html=1;align=center;verticalAlign=middle;resizable=0;points=[];autosize=1;strokeColor=none;fillColor=none;" vertex="1" parent="1">
          <mxGeometry x="655" y="798" width="50" height="30" as="geometry" />
        </mxCell>
        <mxCell id="uboCT4VGcEMhE3Ukk4wY-15" value="(0,N)" style="text;html=1;align=center;verticalAlign=middle;resizable=0;points=[];autosize=1;strokeColor=none;fillColor=none;" vertex="1" parent="1">
          <mxGeometry x="655" y="888" width="50" height="30" as="geometry" />
        </mxCell>
        <mxCell id="uboCT4VGcEMhE3Ukk4wY-16" value="(1,1)" style="text;html=1;align=center;verticalAlign=middle;resizable=0;points=[];autosize=1;strokeColor=none;fillColor=none;" vertex="1" parent="1">
          <mxGeometry x="655" y="1060" width="50" height="30" as="geometry" />
        </mxCell>
        <mxCell id="uboCT4VGcEMhE3Ukk4wY-17" value="(0,1)" style="text;html=1;align=center;verticalAlign=middle;resizable=0;points=[];autosize=1;strokeColor=none;fillColor=none;" vertex="1" parent="1">
          <mxGeometry x="655" y="1150" width="50" height="30" as="geometry" />
        </mxCell>
        <mxCell id="uboCT4VGcEMhE3Ukk4wY-18" value="(1,1)" style="text;html=1;align=center;verticalAlign=middle;resizable=0;points=[];autosize=1;strokeColor=none;fillColor=none;" vertex="1" parent="1">
          <mxGeometry x="815" y="960" width="50" height="30" as="geometry" />
        </mxCell>
        <mxCell id="uboCT4VGcEMhE3Ukk4wY-19" value="(0,N)" style="text;html=1;align=center;verticalAlign=middle;resizable=0;points=[];autosize=1;strokeColor=none;fillColor=none;" vertex="1" parent="1">
          <mxGeometry x="975" y="958" width="50" height="30" as="geometry" />
        </mxCell>
        <mxCell id="uboCT4VGcEMhE3Ukk4wY-20" value="(0,N)" style="text;html=1;align=center;verticalAlign=middle;resizable=0;points=[];autosize=1;strokeColor=none;fillColor=none;" vertex="1" parent="1">
          <mxGeometry x="660" y="1420" width="50" height="30" as="geometry" />
        </mxCell>
        <mxCell id="uboCT4VGcEMhE3Ukk4wY-21" value="(1,1)" style="text;html=1;align=center;verticalAlign=middle;resizable=0;points=[];autosize=1;strokeColor=none;fillColor=none;" vertex="1" parent="1">
          <mxGeometry x="720" y="1360" width="50" height="30" as="geometry" />
        </mxCell>
        <mxCell id="uboCT4VGcEMhE3Ukk4wY-22" value="(1,1)" style="text;html=1;align=center;verticalAlign=middle;resizable=0;points=[];autosize=1;strokeColor=none;fillColor=none;" vertex="1" parent="1">
          <mxGeometry x="550" y="1358" width="50" height="30" as="geometry" />
        </mxCell>
        <mxCell id="uboCT4VGcEMhE3Ukk4wY-23" value="(1,1)" style="text;html=1;align=center;verticalAlign=middle;resizable=0;points=[];autosize=1;strokeColor=none;fillColor=none;" vertex="1" parent="1">
          <mxGeometry x="660" y="1330" width="50" height="30" as="geometry" />
        </mxCell>
        <mxCell id="uboCT4VGcEMhE3Ukk4wY-24" value="(0,N)" style="text;html=1;align=center;verticalAlign=middle;resizable=0;points=[];autosize=1;strokeColor=none;fillColor=none;" vertex="1" parent="1">
          <mxGeometry x="255" y="1360" width="50" height="30" as="geometry" />
        </mxCell>
        <mxCell id="uboCT4VGcEMhE3Ukk4wY-25" value="(1,1)" style="text;html=1;align=center;verticalAlign=middle;resizable=0;points=[];autosize=1;strokeColor=none;fillColor=none;" vertex="1" parent="1">
          <mxGeometry x="85" y="1360" width="50" height="30" as="geometry" />
        </mxCell>
        <mxCell id="uboCT4VGcEMhE3Ukk4wY-26" value="(1,1)" style="text;html=1;align=center;verticalAlign=middle;resizable=0;points=[];autosize=1;strokeColor=none;fillColor=none;" vertex="1" parent="1">
          <mxGeometry x="-20" y="1440" width="50" height="30" as="geometry" />
        </mxCell>
        <mxCell id="uboCT4VGcEMhE3Ukk4wY-27" value="(0,N)" style="text;html=1;align=center;verticalAlign=middle;resizable=0;points=[];autosize=1;strokeColor=none;fillColor=none;" vertex="1" parent="1">
          <mxGeometry x="-20" y="1530" width="50" height="30" as="geometry" />
        </mxCell>
        <mxCell id="KUu47qJ8_lN8iZBXWBEV-1" value="PLANTATION_WORKER" style="whiteSpace=wrap;html=1;align=center;shape=ext;margin=3;double=1;direction=east;" vertex="1" parent="1">
          <mxGeometry x="940" y="280" width="100" height="40" as="geometry" />
        </mxCell>
        <mxCell id="KUu47qJ8_lN8iZBXWBEV-2" style="rounded=0;orthogonalLoop=1;jettySize=auto;html=1;exitX=0;exitY=0.5;exitDx=0;exitDy=0;entryX=0;entryY=0.5;entryDx=0;entryDy=0;endArrow=none;endFill=0;startArrow=none;startFill=0;" edge="1" parent="1" source="KUu47qJ8_lN8iZBXWBEV-4" target="KUu47qJ8_lN8iZBXWBEV-6">
          <mxGeometry relative="1" as="geometry" />
        </mxCell>
        <mxCell id="KUu47qJ8_lN8iZBXWBEV-3" value="" style="edgeStyle=orthogonalEdgeStyle;rounded=0;orthogonalLoop=1;jettySize=auto;html=1;endArrow=none;endFill=0;" edge="1" parent="1" source="KUu47qJ8_lN8iZBXWBEV-4" target="KUu47qJ8_lN8iZBXWBEV-17">
          <mxGeometry relative="1" as="geometry" />
        </mxCell>
        <mxCell id="KUu47qJ8_lN8iZBXWBEV-4" value="PLANTATION" style="whiteSpace=wrap;html=1;align=center;direction=east;" vertex="1" parent="1">
          <mxGeometry x="750" y="420" width="100" height="40" as="geometry" />
        </mxCell>
        <mxCell id="KUu47qJ8_lN8iZBXWBEV-5" value="" style="edgeStyle=orthogonalEdgeStyle;rounded=0;orthogonalLoop=1;jettySize=auto;html=1;endArrow=none;endFill=0;startArrow=none;startFill=0;shape=link;" edge="1" parent="1" source="KUu47qJ8_lN8iZBXWBEV-6" target="KUu47qJ8_lN8iZBXWBEV-1">
          <mxGeometry relative="1" as="geometry" />
        </mxCell>
        <mxCell id="KUu47qJ8_lN8iZBXWBEV-6" value="WORKS_AT_SITE" style="shape=rhombus;perimeter=rhombusPerimeter;whiteSpace=wrap;html=1;align=center;double=1;direction=east;" vertex="1" parent="1">
          <mxGeometry x="930" y="410" width="120" height="60" as="geometry" />
        </mxCell>
        <mxCell id="KUu47qJ8_lN8iZBXWBEV-7" style="edgeStyle=orthogonalEdgeStyle;rounded=0;orthogonalLoop=1;jettySize=auto;html=1;exitX=1;exitY=0.5;exitDx=0;exitDy=0;entryX=0;entryY=0.5;entryDx=0;entryDy=0;endArrow=none;endFill=0;shape=link;" edge="1" parent="1" source="KUu47qJ8_lN8iZBXWBEV-8" target="KUu47qJ8_lN8iZBXWBEV-10">
          <mxGeometry relative="1" as="geometry" />
        </mxCell>
        <mxCell id="KUu47qJ8_lN8iZBXWBEV-8" value="PW_HAS_TEMP_CONTRACT" style="shape=rhombus;perimeter=rhombusPerimeter;whiteSpace=wrap;html=1;align=center;double=1;direction=east;" vertex="1" parent="1">
          <mxGeometry x="1100" y="222" width="120" height="60" as="geometry" />
        </mxCell>
        <mxCell id="KUu47qJ8_lN8iZBXWBEV-9" value="PM_HAS_PERM_CONTRACT" style="shape=rhombus;perimeter=rhombusPerimeter;whiteSpace=wrap;html=1;align=center;double=1;direction=east;" vertex="1" parent="1">
          <mxGeometry x="1100" y="320" width="120" height="60" as="geometry" />
        </mxCell>
        <mxCell id="KUu47qJ8_lN8iZBXWBEV-10" value="PW_TEMPORARY_CONTRACT" style="whiteSpace=wrap;html=1;align=center;shape=ext;margin=3;double=1;direction=east;" vertex="1" parent="1">
          <mxGeometry x="1300" y="232" width="100" height="40" as="geometry" />
        </mxCell>
        <mxCell id="KUu47qJ8_lN8iZBXWBEV-11" value="PW_PERMANENT_CONTRACT" style="whiteSpace=wrap;html=1;align=center;shape=ext;margin=3;double=1;direction=east;" vertex="1" parent="1">
          <mxGeometry x="1300" y="328" width="100" height="40" as="geometry" />
        </mxCell>
        <mxCell id="KUu47qJ8_lN8iZBXWBEV-12" value="" style="endArrow=none;html=1;rounded=0;exitX=0;exitY=0.5;exitDx=0;exitDy=0;entryX=1;entryY=0.5;entryDx=0;entryDy=0;shape=link;" edge="1" parent="1" source="KUu47qJ8_lN8iZBXWBEV-11" target="KUu47qJ8_lN8iZBXWBEV-9">
          <mxGeometry width="50" height="50" relative="1" as="geometry">
            <mxPoint x="1165" y="460" as="sourcePoint" />
            <mxPoint x="1215" y="410" as="targetPoint" />
          </mxGeometry>
        </mxCell>
        <mxCell id="KUu47qJ8_lN8iZBXWBEV-13" value="" style="endArrow=none;html=1;rounded=0;exitX=1;exitY=0.5;exitDx=0;exitDy=0;entryX=0;entryY=0.5;entryDx=0;entryDy=0;" edge="1" parent="1" source="KUu47qJ8_lN8iZBXWBEV-1" target="KUu47qJ8_lN8iZBXWBEV-9">
          <mxGeometry width="50" height="50" relative="1" as="geometry">
            <mxPoint x="445" y="150" as="sourcePoint" />
            <mxPoint x="445" y="220" as="targetPoint" />
          </mxGeometry>
        </mxCell>
        <mxCell id="KUu47qJ8_lN8iZBXWBEV-14" value="" style="endArrow=none;html=1;rounded=0;exitX=1;exitY=0.5;exitDx=0;exitDy=0;entryX=0;entryY=0.5;entryDx=0;entryDy=0;" edge="1" parent="1" source="KUu47qJ8_lN8iZBXWBEV-1" target="KUu47qJ8_lN8iZBXWBEV-8">
          <mxGeometry width="50" height="50" relative="1" as="geometry">
            <mxPoint x="525" y="390" as="sourcePoint" />
            <mxPoint x="445" y="280" as="targetPoint" />
          </mxGeometry>
        </mxCell>
        <mxCell id="KUu47qJ8_lN8iZBXWBEV-15" value="" style="edgeStyle=orthogonalEdgeStyle;rounded=0;orthogonalLoop=1;jettySize=auto;html=1;endArrow=none;endFill=0;strokeColor=default;shape=link;" edge="1" parent="1" source="KUu47qJ8_lN8iZBXWBEV-16" target="KUu47qJ8_lN8iZBXWBEV-17">
          <mxGeometry relative="1" as="geometry" />
        </mxCell>
        <mxCell id="KUu47qJ8_lN8iZBXWBEV-16" value="PLANTATION_MANAGER" style="whiteSpace=wrap;html=1;align=center;shape=ext;margin=3;double=1;direction=east;" vertex="1" parent="1">
          <mxGeometry x="750" y="160" width="100" height="40" as="geometry" />
        </mxCell>
        <mxCell id="KUu47qJ8_lN8iZBXWBEV-17" value="MANAGES_PLANTATION" style="shape=rhombus;perimeter=rhombusPerimeter;whiteSpace=wrap;html=1;align=center;double=1;direction=east;" vertex="1" parent="1">
          <mxGeometry x="740" y="270" width="120" height="60" as="geometry" />
        </mxCell>
        <mxCell id="KUu47qJ8_lN8iZBXWBEV-18" value="" style="edgeStyle=orthogonalEdgeStyle;rounded=0;orthogonalLoop=1;jettySize=auto;html=1;endArrow=none;endFill=0;" edge="1" parent="1" source="KUu47qJ8_lN8iZBXWBEV-20" target="KUu47qJ8_lN8iZBXWBEV-1">
          <mxGeometry relative="1" as="geometry" />
        </mxCell>
        <mxCell id="KUu47qJ8_lN8iZBXWBEV-19" style="edgeStyle=orthogonalEdgeStyle;rounded=0;orthogonalLoop=1;jettySize=auto;html=1;exitX=0;exitY=0.5;exitDx=0;exitDy=0;entryX=1;entryY=0.5;entryDx=0;entryDy=0;endArrow=none;endFill=0;shape=link;" edge="1" parent="1" source="KUu47qJ8_lN8iZBXWBEV-20" target="KUu47qJ8_lN8iZBXWBEV-16">
          <mxGeometry relative="1" as="geometry" />
        </mxCell>
        <mxCell id="KUu47qJ8_lN8iZBXWBEV-20" value="PM_IS_AN_EMPLOYEE" style="shape=rhombus;perimeter=rhombusPerimeter;whiteSpace=wrap;html=1;align=center;double=1;direction=east;" vertex="1" parent="1">
          <mxGeometry x="930" y="150" width="120" height="60" as="geometry" />
        </mxCell>
      </root>
    </mxGraphModel>
  </diagram>
</mxfile>
